<svg xmlns="http://www.w3.org/2000/svg" xmlns:xlink="http://www.w3.org/1999/xlink" width="240" zoomAndPan="magnify" viewBox="0 0 180 60" height="80" preserveAspectRatio="xMidYMid meet" version="1.0"><defs><g/><clipPath id="0b756c8415"><path d="M 91.851562 16.410156 L 119.390625 16.410156 L 119.390625 43.949219 L 91.851562 43.949219 Z M 91.851562 16.410156 " clip-rule="nonzero"/></clipPath><clipPath id="c0408ee6e1"><path d="M 105.621094 16.410156 C 98.019531 16.410156 91.851562 22.574219 91.851562 30.179688 C 91.851562 37.785156 98.019531 43.949219 105.621094 43.949219 C 113.226562 43.949219 119.390625 37.785156 119.390625 30.179688 C 119.390625 22.574219 113.226562 16.410156 105.621094 16.410156 Z M 105.621094 16.410156 " clip-rule="nonzero"/></clipPath><clipPath id="015a8958c1"><path d="M 92.636719 17.195312 L 118.886719 17.195312 L 118.886719 43.445312 L 92.636719 43.445312 Z M 92.636719 17.195312 " clip-rule="nonzero"/></clipPath></defs><g fill="#000000" fill-opacity="1"><g transform="translate(5.440764, 41.370526)"><g><path d="M 2.921875 -29.265625 L 11.203125 -29.265625 L 11.203125 -6.5625 L 25.171875 -6.5625 L 25.171875 0 L 2.921875 0 Z M 2.921875 -29.265625 "/></g></g></g><g fill="#000000" fill-opacity="1"><g transform="translate(26.514618, 41.370526)"><g><path d="M 12.203125 -23.03125 C 15.972656 -23.03125 18.847656 -22.171875 20.828125 -20.453125 C 22.804688 -18.742188 23.796875 -16.117188 23.796875 -12.578125 L 23.796875 0 L 16.390625 0 L 16.390625 -2.921875 C 15.242188 -0.722656 13.015625 0.375 9.703125 0.375 C 7.941406 0.375 6.421875 0.0664062 5.140625 -0.546875 C 3.859375 -1.160156 2.890625 -1.988281 2.234375 -3.03125 C 1.578125 -4.070312 1.25 -5.265625 1.25 -6.609375 C 1.25 -8.753906 2.070312 -10.414062 3.71875 -11.59375 C 5.363281 -12.78125 7.898438 -13.375 11.328125 -13.375 L 15.84375 -13.375 C 15.707031 -15.769531 14.101562 -16.96875 11.03125 -16.96875 C 9.945312 -16.96875 8.847656 -16.796875 7.734375 -16.453125 C 6.617188 -16.109375 5.671875 -15.628906 4.890625 -15.015625 L 2.21875 -20.40625 C 3.46875 -21.238281 4.988281 -21.882812 6.78125 -22.34375 C 8.582031 -22.800781 10.390625 -23.03125 12.203125 -23.03125 Z M 11.921875 -4.640625 C 12.835938 -4.640625 13.644531 -4.863281 14.34375 -5.3125 C 15.039062 -5.757812 15.539062 -6.414062 15.84375 -7.28125 L 15.84375 -9.234375 L 12.421875 -9.234375 C 10.109375 -9.234375 8.953125 -8.46875 8.953125 -6.9375 C 8.953125 -6.238281 9.210938 -5.679688 9.734375 -5.265625 C 10.265625 -4.847656 10.992188 -4.640625 11.921875 -4.640625 Z M 11.921875 -4.640625 "/></g></g></g><g fill="#000000" fill-opacity="1"><g transform="translate(48.341115, 41.370526)"><g/></g></g><g fill="#000000" fill-opacity="1"><g transform="translate(56.076557, 41.370526)"><g><path d="M 29.359375 0 L 29.265625 -15.515625 L 21.75 -2.890625 L 18.0625 -2.890625 L 10.578125 -15.09375 L 10.578125 0 L 2.921875 0 L 2.921875 -29.265625 L 9.75 -29.265625 L 20.03125 -12.375 L 30.0625 -29.265625 L 36.875 -29.265625 L 36.96875 0 Z M 29.359375 0 "/></g></g></g><g fill="#000000" fill-opacity="1"><g transform="translate(91.534151, 41.370526)"><g><path d="M 13.921875 0.375 C 11.492188 0.375 9.304688 -0.125 7.359375 -1.125 C 5.410156 -2.132812 3.882812 -3.53125 2.78125 -5.3125 C 1.675781 -7.09375 1.125 -9.113281 1.125 -11.375 C 1.125 -13.601562 1.675781 -15.609375 2.78125 -17.390625 C 3.882812 -19.171875 5.40625 -20.554688 7.34375 -21.546875 C 9.28125 -22.535156 11.472656 -23.03125 13.921875 -23.03125 C 16.378906 -23.03125 18.582031 -22.535156 20.53125 -21.546875 C 22.476562 -20.554688 23.992188 -19.175781 25.078125 -17.40625 C 26.171875 -15.644531 26.71875 -13.632812 26.71875 -11.375 C 26.71875 -9.113281 26.171875 -7.09375 25.078125 -5.3125 C 23.992188 -3.53125 22.476562 -2.132812 20.53125 -1.125 C 18.582031 -0.125 16.378906 0.375 13.921875 0.375 Z M 13.921875 -5.9375 C 15.316406 -5.9375 16.457031 -6.414062 17.34375 -7.375 C 18.238281 -8.34375 18.6875 -9.675781 18.6875 -11.375 C 18.6875 -13.039062 18.238281 -14.347656 17.34375 -15.296875 C 16.457031 -16.242188 15.316406 -16.71875 13.921875 -16.71875 C 12.523438 -16.71875 11.378906 -16.242188 10.484375 -15.296875 C 9.597656 -14.347656 9.15625 -13.039062 9.15625 -11.375 C 9.15625 -9.675781 9.597656 -8.34375 10.484375 -7.375 C 11.378906 -6.414062 12.523438 -5.9375 13.921875 -5.9375 Z M 13.921875 -5.9375 "/></g></g></g><g fill="#000000" fill-opacity="1"><g transform="translate(114.949551, 41.370526)"><g><path d="M 26.421875 -22.65625 L 17.0625 0 L 8.859375 0 L -0.453125 -22.65625 L 7.6875 -22.65625 L 13.125 -8.828125 L 18.859375 -22.65625 Z M 26.421875 -22.65625 "/></g></g></g><g fill="#000000" fill-opacity="1"><g transform="translate(136.441535, 41.370526)"><g><path d="M 2.546875 -22.65625 L 10.5 -22.65625 L 10.5 0 L 2.546875 0 Z M 6.515625 -25.171875 C 5.066406 -25.171875 3.894531 -25.570312 3 -26.375 C 2.113281 -27.1875 1.671875 -28.191406 1.671875 -29.390625 C 1.671875 -30.585938 2.113281 -31.585938 3 -32.390625 C 3.894531 -33.203125 5.066406 -33.609375 6.515625 -33.609375 C 7.960938 -33.609375 9.132812 -33.222656 10.03125 -32.453125 C 10.925781 -31.691406 11.375 -30.710938 11.375 -29.515625 C 11.375 -28.265625 10.925781 -27.226562 10.03125 -26.40625 C 9.132812 -25.582031 7.960938 -25.171875 6.515625 -25.171875 Z M 6.515625 -25.171875 "/></g></g></g><g fill="#000000" fill-opacity="1"><g transform="translate(145.096865, 41.370526)"><g><path d="M 25.71875 -11.296875 C 25.71875 -11.234375 25.675781 -10.578125 25.59375 -9.328125 L 9.109375 -9.328125 C 9.441406 -8.148438 10.085938 -7.25 11.046875 -6.625 C 12.015625 -6 13.222656 -5.6875 14.671875 -5.6875 C 15.765625 -5.6875 16.707031 -5.835938 17.5 -6.140625 C 18.289062 -6.453125 19.09375 -6.957031 19.90625 -7.65625 L 24.078125 -3.296875 C 21.878906 -0.847656 18.660156 0.375 14.421875 0.375 C 11.773438 0.375 9.445312 -0.125 7.4375 -1.125 C 5.4375 -2.132812 3.882812 -3.53125 2.78125 -5.3125 C 1.675781 -7.09375 1.125 -9.113281 1.125 -11.375 C 1.125 -13.601562 1.660156 -15.601562 2.734375 -17.375 C 3.804688 -19.144531 5.289062 -20.53125 7.1875 -21.53125 C 9.082031 -22.53125 11.21875 -23.03125 13.59375 -23.03125 C 15.84375 -23.03125 17.890625 -22.5625 19.734375 -21.625 C 21.578125 -20.695312 23.035156 -19.347656 24.109375 -17.578125 C 25.179688 -15.804688 25.71875 -13.710938 25.71875 -11.296875 Z M 13.625 -17.390625 C 12.40625 -17.390625 11.382812 -17.039062 10.5625 -16.34375 C 9.738281 -15.644531 9.210938 -14.695312 8.984375 -13.5 L 18.265625 -13.5 C 18.046875 -14.695312 17.523438 -15.644531 16.703125 -16.34375 C 15.878906 -17.039062 14.851562 -17.390625 13.625 -17.390625 Z M 13.625 -17.390625 "/></g></g></g><g clip-path="url(#0b756c8415)"><g clip-path="url(#c0408ee6e1)"><path fill="#ffffff" d="M 91.851562 16.410156 L 119.390625 16.410156 L 119.390625 43.949219 L 91.851562 43.949219 Z M 91.851562 16.410156 " fill-opacity="1" fill-rule="nonzero"/></g></g><g clip-path="url(#015a8958c1)"><path fill="#f97316" d="M 115.726562 36.015625 C 114.980469 37.304688 113.480469 37.886719 112.101562 37.523438 L 108.328125 41.296875 L 107.917969 40.890625 C 107.335938 41.480469 106.519531 41.847656 105.621094 41.847656 C 103.835938 41.847656 102.386719 40.398438 102.386719 38.613281 C 102.386719 37.25 103.230469 36.085938 104.421875 35.609375 L 103.242188 34.425781 L 102.347656 35.320312 L 101.550781 34.519531 C 101.507812 35.59375 100.933594 36.621094 99.9375 37.199219 C 98.386719 38.089844 96.410156 37.558594 95.515625 36.015625 C 94.625 34.464844 95.152344 32.488281 96.699219 31.59375 C 98.035156 30.824219 99.691406 31.113281 100.695312 32.199219 L 110.007812 22.886719 L 110.71875 23.597656 C 110.894531 23.433594 111.089844 23.285156 111.308594 23.160156 C 112.855469 22.265625 114.832031 22.796875 115.726562 24.34375 C 116.621094 25.890625 116.089844 27.871094 114.542969 28.761719 C 114.449219 28.820312 114.351562 28.871094 114.25 28.914062 L 115.09375 29.757812 L 115.988281 28.867188 L 116.394531 29.277344 L 116.765625 29.644531 L 117.175781 30.054688 L 117.300781 30.183594 L 117.714844 30.59375 L 118.375 31.253906 L 116.054688 33.574219 C 116.265625 34.367188 116.171875 35.246094 115.726562 36.015625 Z M 95.515625 24.34375 C 96.410156 22.796875 98.386719 22.265625 99.9375 23.160156 C 101.480469 24.054688 102.011719 26.03125 101.121094 27.578125 C 100.226562 29.128906 98.25 29.65625 96.699219 28.761719 C 95.152344 27.871094 94.625 25.890625 95.515625 24.34375 Z M 105.621094 18.511719 C 107.410156 18.511719 108.859375 19.957031 108.859375 21.742188 C 108.859375 23.53125 107.410156 24.980469 105.621094 24.980469 C 103.835938 24.980469 102.386719 23.53125 102.386719 21.742188 C 102.386719 19.957031 103.835938 18.511719 105.621094 18.511719 Z M 105.621094 17.195312 C 98.453125 17.195312 92.636719 23.007812 92.636719 30.179688 C 92.636719 37.347656 98.453125 43.164062 105.621094 43.164062 C 112.792969 43.164062 118.605469 37.347656 118.605469 30.179688 C 118.605469 23.007812 112.792969 17.195312 105.621094 17.195312 " fill-opacity="1" fill-rule="nonzero"/></g><path fill="#f97316" d="M 116.222656 32.082031 L 115.75 32.554688 C 115.730469 32.578125 115.703125 32.585938 115.675781 32.585938 C 115.648438 32.585938 115.621094 32.574219 115.597656 32.554688 L 114.804688 31.761719 C 114.761719 31.71875 114.761719 31.648438 114.804688 31.609375 L 115.277344 31.136719 C 115.296875 31.113281 115.324219 31.105469 115.351562 31.105469 C 115.378906 31.105469 115.410156 31.113281 115.429688 31.136719 L 116.222656 31.929688 C 116.265625 31.972656 116.265625 32.039062 116.222656 32.082031 Z M 114.90625 33.402344 L 114.433594 33.875 C 114.410156 33.894531 114.382812 33.902344 114.355469 33.902344 C 114.328125 33.902344 114.300781 33.894531 114.28125 33.871094 L 113.484375 33.078125 C 113.445312 33.035156 113.445312 32.96875 113.484375 32.925781 L 113.957031 32.453125 C 113.980469 32.433594 114.007812 32.421875 114.035156 32.421875 C 114.0625 32.421875 114.089844 32.433594 114.109375 32.457031 L 114.902344 33.246094 C 114.945312 33.289062 114.949219 33.359375 114.90625 33.402344 Z M 113.585938 34.71875 L 113.113281 35.191406 C 113.09375 35.214844 113.066406 35.222656 113.039062 35.222656 C 113.011719 35.222656 112.980469 35.210938 112.960938 35.191406 L 112.167969 34.398438 C 112.125 34.355469 112.125 34.289062 112.167969 34.246094 L 112.640625 33.773438 C 112.660156 33.753906 112.6875 33.742188 112.714844 33.742188 C 112.742188 33.742188 112.769531 33.753906 112.792969 33.773438 L 113.585938 34.566406 C 113.628906 34.609375 113.628906 34.675781 113.585938 34.71875 Z M 112.265625 36.039062 L 111.792969 36.511719 C 111.773438 36.53125 111.746094 36.542969 111.71875 36.542969 C 111.691406 36.542969 111.664062 36.53125 111.640625 36.507812 L 110.851562 35.714844 C 110.808594 35.675781 110.808594 35.605469 110.847656 35.566406 L 111.320312 35.09375 C 111.34375 35.070312 111.367188 35.0625 111.394531 35.0625 C 111.421875 35.0625 111.449219 35.070312 111.472656 35.09375 L 112.265625 35.886719 C 112.308594 35.925781 112.308594 35.996094 112.265625 36.039062 Z M 110.949219 37.359375 L 110.476562 37.828125 C 110.453125 37.851562 110.429688 37.859375 110.402344 37.859375 C 110.375 37.859375 110.34375 37.851562 110.324219 37.828125 L 109.53125 37.035156 C 109.488281 36.992188 109.488281 36.925781 109.53125 36.882812 L 110.003906 36.410156 C 110.023438 36.390625 110.050781 36.378906 110.078125 36.378906 C 110.105469 36.378906 110.132812 36.390625 110.152344 36.414062 L 110.945312 37.203125 C 110.988281 37.246094 110.992188 37.316406 110.949219 37.359375 Z M 109.628906 38.675781 L 109.15625 39.148438 C 109.136719 39.167969 109.109375 39.179688 109.082031 39.179688 C 109.054688 39.179688 109.027344 39.167969 109.003906 39.148438 L 108.210938 38.355469 C 108.167969 38.3125 108.167969 38.242188 108.210938 38.203125 L 108.683594 37.730469 C 108.695312 37.71875 108.710938 37.707031 108.726562 37.703125 C 108.738281 37.699219 108.75 37.699219 108.757812 37.699219 C 108.785156 37.699219 108.8125 37.710938 108.835938 37.730469 L 109.628906 38.523438 C 109.671875 38.566406 109.671875 38.636719 109.628906 38.675781 Z M 107.707031 37.289062 L 103.972656 33.554688 C 103.785156 33.367188 103.785156 33.0625 103.972656 32.875 L 109.949219 26.898438 C 110.042969 26.804688 110.167969 26.757812 110.289062 26.757812 C 110.414062 26.757812 110.535156 26.804688 110.628906 26.898438 L 112.929688 29.195312 L 114.363281 30.632812 C 114.550781 30.820312 114.550781 31.125 114.363281 31.3125 L 108.386719 37.289062 C 108.292969 37.382812 108.167969 37.429688 108.046875 37.429688 C 107.921875 37.429688 107.800781 37.382812 107.707031 37.289062 Z M 103.433594 30.9375 C 103.390625 30.894531 103.390625 30.828125 103.433594 30.785156 L 103.90625 30.3125 C 103.921875 30.292969 103.953125 30.28125 103.976562 30.28125 C 104.007812 30.28125 104.035156 30.292969 104.054688 30.316406 L 104.847656 31.105469 C 104.890625 31.148438 104.890625 31.21875 104.851562 31.257812 L 104.378906 31.730469 C 104.355469 31.753906 104.332031 31.761719 104.304688 31.761719 C 104.273438 31.761719 104.246094 31.753906 104.226562 31.730469 Z M 103.53125 32.578125 L 103.058594 33.050781 C 103.039062 33.070312 103.011719 33.082031 102.984375 33.082031 C 102.957031 33.082031 102.929688 33.070312 102.90625 33.050781 L 102.113281 32.257812 C 102.070312 32.214844 102.070312 32.144531 102.109375 32.105469 L 102.585938 31.628906 C 102.605469 31.613281 102.632812 31.601562 102.660156 31.601562 C 102.6875 31.601562 102.714844 31.613281 102.738281 31.632812 L 103.53125 32.425781 C 103.574219 32.46875 103.574219 32.535156 103.53125 32.578125 Z M 104.75 29.464844 L 105.222656 28.992188 C 105.242188 28.972656 105.269531 28.960938 105.296875 28.960938 C 105.324219 28.960938 105.351562 28.972656 105.375 28.996094 L 106.167969 29.789062 C 106.210938 29.828125 106.210938 29.898438 106.167969 29.941406 L 105.695312 30.414062 C 105.675781 30.433594 105.648438 30.445312 105.621094 30.445312 C 105.59375 30.445312 105.566406 30.433594 105.542969 30.410156 L 104.75 29.617188 C 104.707031 29.578125 104.707031 29.507812 104.75 29.464844 Z M 106.070312 28.148438 L 106.542969 27.675781 C 106.5625 27.652344 106.589844 27.644531 106.617188 27.644531 C 106.644531 27.644531 106.671875 27.65625 106.695312 27.675781 L 107.484375 28.46875 C 107.527344 28.511719 107.53125 28.578125 107.488281 28.621094 L 107.015625 29.09375 C 106.996094 29.117188 106.96875 29.125 106.941406 29.125 C 106.914062 29.125 106.882812 29.113281 106.863281 29.089844 L 106.070312 28.300781 C 106.027344 28.257812 106.027344 28.191406 106.070312 28.148438 Z M 107.386719 26.828125 L 107.859375 26.355469 C 107.882812 26.335938 107.90625 26.324219 107.9375 26.324219 C 107.964844 26.324219 107.992188 26.335938 108.011719 26.355469 L 108.804688 27.148438 C 108.847656 27.191406 108.847656 27.261719 108.808594 27.304688 L 108.332031 27.777344 C 108.3125 27.796875 108.285156 27.804688 108.257812 27.804688 C 108.230469 27.804688 108.203125 27.796875 108.179688 27.773438 L 107.386719 26.980469 C 107.347656 26.9375 107.347656 26.871094 107.386719 26.828125 Z M 108.707031 25.507812 L 109.179688 25.039062 C 109.199219 25.015625 109.226562 25.003906 109.253906 25.003906 C 109.28125 25.003906 109.308594 25.015625 109.332031 25.039062 L 110.125 25.832031 C 110.164062 25.875 110.167969 25.941406 110.125 25.984375 L 109.652344 26.457031 C 109.632812 26.476562 109.605469 26.488281 109.578125 26.488281 C 109.550781 26.488281 109.519531 26.476562 109.5 26.453125 L 108.707031 25.664062 C 108.664062 25.621094 108.664062 25.550781 108.707031 25.507812 Z M 117.300781 31.003906 L 117.070312 31.234375 C 117.050781 31.257812 117.023438 31.265625 116.996094 31.265625 C 116.96875 31.265625 116.9375 31.257812 116.917969 31.234375 L 116.125 30.441406 C 116.082031 30.398438 116.082031 30.332031 116.121094 30.289062 L 116.355469 30.054688 L 115.988281 29.6875 L 115.433594 30.238281 C 115.339844 30.332031 115.21875 30.382812 115.09375 30.382812 C 114.972656 30.382812 114.847656 30.332031 114.753906 30.238281 L 111.019531 26.507812 C 110.835938 26.316406 110.835938 26.015625 111.019531 25.828125 L 111.574219 25.273438 L 111.203125 24.90625 L 110.972656 25.136719 C 110.953125 25.160156 110.925781 25.167969 110.898438 25.167969 C 110.867188 25.167969 110.839844 25.160156 110.820312 25.136719 L 110.027344 24.34375 C 109.984375 24.300781 109.984375 24.234375 110.023438 24.191406 L 110.257812 23.960938 L 110.007812 23.707031 L 100.78125 32.933594 L 101.035156 33.183594 L 101.265625 32.949219 C 101.285156 32.929688 101.3125 32.917969 101.339844 32.917969 C 101.371094 32.917969 101.398438 32.929688 101.417969 32.953125 L 102.210938 33.742188 C 102.253906 33.785156 102.253906 33.855469 102.214844 33.898438 L 101.980469 34.128906 L 102.347656 34.5 L 102.902344 33.945312 C 102.996094 33.851562 103.117188 33.804688 103.242188 33.804688 C 103.363281 33.804688 103.488281 33.851562 103.582031 33.945312 L 107.316406 37.679688 C 107.503906 37.867188 107.503906 38.171875 107.316406 38.359375 L 106.761719 38.914062 L 107.132812 39.28125 L 107.363281 39.046875 C 107.386719 39.027344 107.410156 39.019531 107.441406 39.019531 C 107.46875 39.019531 107.496094 39.027344 107.515625 39.050781 L 108.308594 39.839844 C 108.351562 39.886719 108.351562 39.953125 108.3125 39.996094 L 108.078125 40.230469 L 108.328125 40.480469 L 111.503906 37.300781 L 115.832031 32.972656 L 117.554688 31.253906 L 117.300781 31.003906 " fill-opacity="1" fill-rule="nonzero"/><g fill="#000000" fill-opacity="1"><g transform="translate(12.502159, 52.344889)"><g><path d="M 3.859375 0 L 3.859375 -2.421875 L 2.65625 -0.421875 L 2.34375 -0.421875 L 1.140625 -2.390625 L 1.140625 0 L 0.484375 0 L 0.484375 -3.671875 L 1.046875 -3.671875 L 2.5 -1.234375 L 3.9375 -3.671875 L 4.5 -3.671875 L 4.5 0 Z M 3.859375 0 "/></g></g></g><g fill="#000000" fill-opacity="1"><g transform="translate(21.188894, 52.344889)"><g><path d="M 2.203125 0.046875 C 1.828125 0.046875 1.488281 -0.03125 1.1875 -0.1875 C 0.894531 -0.351562 0.660156 -0.578125 0.484375 -0.859375 C 0.316406 -1.148438 0.234375 -1.472656 0.234375 -1.828125 C 0.234375 -2.179688 0.316406 -2.503906 0.484375 -2.796875 C 0.660156 -3.085938 0.894531 -3.3125 1.1875 -3.46875 C 1.488281 -3.632812 1.828125 -3.71875 2.203125 -3.71875 C 2.578125 -3.71875 2.914062 -3.632812 3.21875 -3.46875 C 3.519531 -3.3125 3.753906 -3.085938 3.921875 -2.796875 C 4.085938 -2.515625 4.171875 -2.191406 4.171875 -1.828125 C 4.171875 -1.472656 4.085938 -1.148438 3.921875 -0.859375 C 3.753906 -0.578125 3.519531 -0.351562 3.21875 -0.1875 C 2.914062 -0.03125 2.578125 0.046875 2.203125 0.046875 Z M 2.203125 -0.546875 C 2.441406 -0.546875 2.660156 -0.597656 2.859375 -0.703125 C 3.054688 -0.816406 3.207031 -0.972656 3.3125 -1.171875 C 3.425781 -1.367188 3.484375 -1.585938 3.484375 -1.828125 C 3.484375 -2.078125 3.425781 -2.300781 3.3125 -2.5 C 3.207031 -2.695312 3.054688 -2.847656 2.859375 -2.953125 C 2.660156 -3.066406 2.441406 -3.125 2.203125 -3.125 C 1.960938 -3.125 1.742188 -3.066406 1.546875 -2.953125 C 1.347656 -2.847656 1.191406 -2.695312 1.078125 -2.5 C 0.972656 -2.300781 0.921875 -2.078125 0.921875 -1.828125 C 0.921875 -1.585938 0.972656 -1.367188 1.078125 -1.171875 C 1.191406 -0.972656 1.347656 -0.816406 1.546875 -0.703125 C 1.742188 -0.597656 1.960938 -0.546875 2.203125 -0.546875 Z M 2.203125 -0.546875 "/></g></g></g><g fill="#000000" fill-opacity="1"><g transform="translate(29.285009, 52.344889)"><g><path d="M 3.84375 -3.671875 L 2.25 0 L 1.578125 0 L -0.03125 -3.671875 L 0.71875 -3.671875 L 1.9375 -0.84375 L 3.15625 -3.671875 Z M 3.84375 -3.671875 "/></g></g></g><g fill="#000000" fill-opacity="1"><g transform="translate(36.790511, 52.344889)"><g><path d="M 0.484375 -3.671875 L 1.171875 -3.671875 L 1.171875 0 L 0.484375 0 Z M 0.484375 -3.671875 "/></g></g></g><g fill="#000000" fill-opacity="1"><g transform="translate(42.153073, 52.344889)"><g><path d="M 3.234375 -0.578125 L 3.234375 0 L 0.484375 0 L 0.484375 -3.671875 L 3.171875 -3.671875 L 3.171875 -3.09375 L 1.171875 -3.09375 L 1.171875 -2.140625 L 2.9375 -2.140625 L 2.9375 -1.578125 L 1.171875 -1.578125 L 1.171875 -0.578125 Z M 3.234375 -0.578125 "/></g></g></g><g fill="#000000" fill-opacity="1"><g transform="translate(49.350199, 52.344889)"><g/></g></g><g fill="#000000" fill-opacity="1"><g transform="translate(54.488012, 52.344889)"><g><path d="M 1.234375 -3.09375 L 0.015625 -3.09375 L 0.015625 -3.671875 L 3.125 -3.671875 L 3.125 -3.09375 L 1.921875 -3.09375 L 1.921875 0 L 1.234375 0 Z M 1.234375 -3.09375 "/></g></g></g><g fill="#000000" fill-opacity="1"><g transform="translate(61.329722, 52.344889)"><g><path d="M 3.84375 -3.671875 L 2.25 0 L 1.578125 0 L -0.03125 -3.671875 L 0.71875 -3.671875 L 1.9375 -0.84375 L 3.15625 -3.671875 Z M 3.84375 -3.671875 "/></g></g></g><g fill="#000000" fill-opacity="1"><g transform="translate(68.835224, 52.344889)"><g/></g></g><g fill="#000000" fill-opacity="1"><g transform="translate(73.973034, 52.344889)"><g><path d="M 3.234375 -0.578125 L 3.234375 0 L 0.484375 0 L 0.484375 -3.671875 L 3.171875 -3.671875 L 3.171875 -3.09375 L 1.171875 -3.09375 L 1.171875 -2.140625 L 2.9375 -2.140625 L 2.9375 -1.578125 L 1.171875 -1.578125 L 1.171875 -0.578125 Z M 3.234375 -0.578125 "/></g></g></g><g fill="#000000" fill-opacity="1"><g transform="translate(81.170163, 52.344889)"><g><path d="M 3.75 -3.671875 L 3.75 0 L 3.1875 0 L 1.171875 -2.484375 L 1.171875 0 L 0.484375 0 L 0.484375 -3.671875 L 1.046875 -3.671875 L 3.078125 -1.1875 L 3.078125 -3.671875 Z M 3.75 -3.671875 "/></g></g></g><g fill="#000000" fill-opacity="1"><g transform="translate(89.099028, 52.344889)"><g><path d="M 1.234375 -3.09375 L 0.015625 -3.09375 L 0.015625 -3.671875 L 3.125 -3.671875 L 3.125 -3.09375 L 1.921875 -3.09375 L 1.921875 0 L 1.234375 0 Z M 1.234375 -3.09375 "/></g></g></g><g fill="#000000" fill-opacity="1"><g transform="translate(95.940734, 52.344889)"><g><path d="M 3.234375 -0.578125 L 3.234375 0 L 0.484375 0 L 0.484375 -3.671875 L 3.171875 -3.671875 L 3.171875 -3.09375 L 1.171875 -3.09375 L 1.171875 -2.140625 L 2.9375 -2.140625 L 2.9375 -1.578125 L 1.171875 -1.578125 L 1.171875 -0.578125 Z M 3.234375 -0.578125 "/></g></g></g><g fill="#000000" fill-opacity="1"><g transform="translate(103.137858, 52.344889)"><g><path d="M 2.890625 0 L 2.140625 -1.078125 C 2.109375 -1.066406 2.0625 -1.0625 2 -1.0625 L 1.171875 -1.0625 L 1.171875 0 L 0.484375 0 L 0.484375 -3.671875 L 2 -3.671875 C 2.3125 -3.671875 2.585938 -3.613281 2.828125 -3.5 C 3.066406 -3.394531 3.25 -3.242188 3.375 -3.046875 C 3.5 -2.859375 3.5625 -2.628906 3.5625 -2.359375 C 3.5625 -2.085938 3.492188 -1.847656 3.359375 -1.640625 C 3.222656 -1.441406 3.03125 -1.296875 2.78125 -1.203125 L 3.625 0 Z M 2.875 -2.359375 C 2.875 -2.597656 2.796875 -2.78125 2.640625 -2.90625 C 2.484375 -3.03125 2.257812 -3.09375 1.96875 -3.09375 L 1.171875 -3.09375 L 1.171875 -1.625 L 1.96875 -1.625 C 2.257812 -1.625 2.484375 -1.6875 2.640625 -1.8125 C 2.796875 -1.945312 2.875 -2.128906 2.875 -2.359375 Z M 2.875 -2.359375 "/></g></g></g><g fill="#000000" fill-opacity="1"><g transform="translate(110.653817, 52.344889)"><g><path d="M 1.234375 -3.09375 L 0.015625 -3.09375 L 0.015625 -3.671875 L 3.125 -3.671875 L 3.125 -3.09375 L 1.921875 -3.09375 L 1.921875 0 L 1.234375 0 Z M 1.234375 -3.09375 "/></g></g></g><g fill="#000000" fill-opacity="1"><g transform="translate(117.495524, 52.344889)"><g><path d="M 2.875 -0.84375 L 1.03125 -0.84375 L 0.671875 0 L -0.03125 0 L 1.625 -3.671875 L 2.296875 -3.671875 L 3.953125 0 L 3.234375 0 Z M 2.640625 -1.375 L 1.953125 -2.984375 L 1.265625 -1.375 Z M 2.640625 -1.375 "/></g></g></g><g fill="#000000" fill-opacity="1"><g transform="translate(125.105565, 52.344889)"><g><path d="M 0.484375 -3.671875 L 1.171875 -3.671875 L 1.171875 0 L 0.484375 0 Z M 0.484375 -3.671875 "/></g></g></g><g fill="#000000" fill-opacity="1"><g transform="translate(130.46813, 52.344889)"><g><path d="M 3.75 -3.671875 L 3.75 0 L 3.1875 0 L 1.171875 -2.484375 L 1.171875 0 L 0.484375 0 L 0.484375 -3.671875 L 1.046875 -3.671875 L 3.078125 -1.1875 L 3.078125 -3.671875 Z M 3.75 -3.671875 "/></g></g></g><g fill="#000000" fill-opacity="1"><g transform="translate(138.396994, 52.344889)"><g><path d="M 3.859375 0 L 3.859375 -2.421875 L 2.65625 -0.421875 L 2.34375 -0.421875 L 1.140625 -2.390625 L 1.140625 0 L 0.484375 0 L 0.484375 -3.671875 L 1.046875 -3.671875 L 2.5 -1.234375 L 3.9375 -3.671875 L 4.5 -3.671875 L 4.5 0 Z M 3.859375 0 "/></g></g></g><g fill="#000000" fill-opacity="1"><g transform="translate(147.083733, 52.344889)"><g><path d="M 3.234375 -0.578125 L 3.234375 0 L 0.484375 0 L 0.484375 -3.671875 L 3.171875 -3.671875 L 3.171875 -3.09375 L 1.171875 -3.09375 L 1.171875 -2.140625 L 2.9375 -2.140625 L 2.9375 -1.578125 L 1.171875 -1.578125 L 1.171875 -0.578125 Z M 3.234375 -0.578125 "/></g></g></g><g fill="#000000" fill-opacity="1"><g transform="translate(154.280856, 52.344889)"><g><path d="M 3.75 -3.671875 L 3.75 0 L 3.1875 0 L 1.171875 -2.484375 L 1.171875 0 L 0.484375 0 L 0.484375 -3.671875 L 1.046875 -3.671875 L 3.078125 -1.1875 L 3.078125 -3.671875 Z M 3.75 -3.671875 "/></g></g></g><g fill="#000000" fill-opacity="1"><g transform="translate(162.209721, 52.344889)"><g><path d="M 1.234375 -3.09375 L 0.015625 -3.09375 L 0.015625 -3.671875 L 3.125 -3.671875 L 3.125 -3.09375 L 1.921875 -3.09375 L 1.921875 0 L 1.234375 0 Z M 1.234375 -3.09375 "/></g></g></g></svg>